<?xml version="1.0" encoding="UTF-8"?>
<svg xmlns="http://www.w3.org/2000/svg" xmlns:xlink="http://www.w3.org/1999/xlink" width="133pt" height="64pt" viewBox="0 0 133 64" version="1.1">
<g id="surface1">
<path style=" stroke:none;fill-rule:nonzero;fill:#FEEDD8;fill-opacity:1;" d="M 29.875 1.929688 C 19.46875 3.441406 8.695312 10.230469 4.207031 18.128906 C 0.949219 23.832031 0.53125 30.453125 3.074219 35.675781 C 3.808594 37.171875 5.371094 39.285156 6.914062 40.816406 C 9.460938 43.359375 13.53125 45.320312 18.203125 46.238281 C 18.753906 46.335938 19.632812 46.535156 20.167969 46.6875 C 20.980469 46.917969 21.113281 47.003906 21.113281 47.351562 C 21.113281 48.199219 19.867188 48.898438 18.371094 48.898438 C 17.191406 48.898438 15.628906 48.347656 14.414062 47.519531 C 14.148438 47.351562 14.03125 47.402344 13.53125 47.984375 C 12.785156 48.847656 11.585938 51.308594 11.140625 52.890625 C 10.691406 54.488281 10.507812 57.332031 10.804688 58.046875 C 11.105469 58.761719 12.585938 60.042969 13.832031 60.65625 C 17.988281 62.71875 23.558594 62.984375 28.230469 61.355469 C 30.871094 60.425781 33.398438 58.710938 34.914062 56.816406 C 35.328125 56.300781 35.710938 55.882812 35.761719 55.882812 C 35.808594 55.882812 35.910156 56.597656 35.941406 57.480469 C 35.992188 58.34375 36.09375 59.125 36.175781 59.210938 C 36.441406 59.476562 38.9375 59.742188 40.148438 59.640625 C 41.929688 59.476562 43.742188 59.058594 44.738281 58.5625 L 45.636719 58.128906 L 45.835938 56.964844 C 45.953125 56.316406 46.085938 54.421875 46.152344 52.722656 L 46.265625 49.648438 L 47.679688 48.816406 C 49.175781 47.933594 51.636719 45.753906 52.453125 44.574219 L 52.917969 43.890625 L 53.464844 44.921875 C 54.363281 46.601562 54.398438 46.621094 55.894531 46.503906 C 58.085938 46.320312 61.363281 45.171875 62.644531 44.125 L 63.023438 43.824219 L 62.742188 42.695312 C 62.59375 42.078125 62.511719 41.53125 62.542969 41.480469 C 62.59375 41.445312 63.023438 41.597656 63.523438 41.828125 C 65.121094 42.5625 66.617188 42.792969 68.792969 42.660156 C 69.875 42.59375 71.71875 42.527344 72.933594 42.496094 C 75.410156 42.429688 76.757812 42.144531 78.105469 41.414062 C 78.933594 40.964844 79.101562 40.929688 80.28125 41.015625 C 81.796875 41.132812 84.472656 40.765625 85.835938 40.25 L 86.78125 39.898438 L 86.78125 38.953125 C 86.78125 38.4375 86.832031 37.835938 86.882812 37.621094 C 86.980469 37.253906 87.015625 37.273438 87.695312 37.90625 C 90.007812 40.035156 93.066406 40.132812 97.503906 38.203125 C 98.800781 37.636719 99.46875 37.636719 100.78125 38.238281 C 103.90625 39.652344 107.449219 39.21875 110.339844 37.074219 L 111.1875 36.441406 L 111.917969 37.15625 C 112.933594 38.1875 114.363281 38.621094 116.707031 38.636719 L 118.453125 38.636719 L 119.402344 39.5 C 120.414062 40.414062 121.59375 41.082031 122.175781 41.082031 C 123.125 41.082031 125.570312 39.382812 127.265625 37.554688 C 130.6875 33.847656 132.335938 29.089844 131.421875 25.53125 C 130.707031 22.820312 127.878906 20.140625 124.902344 19.375 C 124.289062 19.210938 123.390625 18.777344 122.542969 18.210938 C 120.863281 17.113281 118.851562 16.367188 116.921875 16.132812 L 115.460938 15.949219 L 114.996094 16.5 C 114.398438 17.199219 113.183594 19.691406 112.699219 21.238281 C 112.484375 21.90625 112.234375 22.453125 112.136719 22.453125 C 112.035156 22.453125 111.769531 22.269531 111.570312 22.054688 C 111.371094 21.835938 110.738281 21.4375 110.175781 21.1875 C 109.191406 20.722656 109.027344 20.707031 106.816406 20.707031 C 104.339844 20.707031 103.941406 20.808594 101.28125 21.972656 C 100.316406 22.402344 100.382812 22.402344 97.921875 21.539062 C 96.890625 21.171875 96.410156 21.089844 95.011719 21.089844 C 94.03125 21.105469 92.949219 21.207031 92.367188 21.371094 C 91.835938 21.503906 91.371094 21.605469 91.335938 21.589844 C 91.253906 21.503906 92.519531 18.542969 92.902344 17.929688 C 93.101562 17.613281 93.265625 17.296875 93.265625 17.230469 C 93.265625 17.179688 92.851562 16.898438 92.351562 16.617188 L 91.421875 16.101562 L 92.035156 15.003906 L 92.632812 13.90625 L 92.152344 13.523438 C 90.257812 12.007812 86.199219 10.8125 82.941406 10.8125 C 80.53125 10.8125 80.5 10.828125 79.816406 12.339844 C 79.433594 13.171875 79.136719 13.636719 78.96875 13.636719 C 78.820312 13.636719 78.320312 13.753906 77.839844 13.886719 C 77.023438 14.136719 76.972656 14.1875 76.640625 15.101562 C 76.441406 15.617188 76.160156 16.683594 76.007812 17.464844 C 75.859375 18.246094 75.742188 18.894531 75.726562 18.910156 C 75.710938 18.945312 75.128906 18.84375 74.414062 18.710938 C 73.132812 18.460938 69.925781 18.378906 69.210938 18.5625 C 68.960938 18.628906 68.8125 18.859375 68.679688 19.375 L 68.496094 20.109375 L 67.546875 20.207031 C 65.203125 20.472656 63.273438 21.121094 61.613281 22.1875 C 61.097656 22.519531 60.648438 22.785156 60.613281 22.785156 C 60.414062 22.785156 61.0625 16.898438 61.511719 14.71875 C 61.894531 12.921875 61.910156 12.957031 60.03125 12.523438 C 58.304688 12.109375 52.96875 12.125 50.757812 12.523438 C 48.011719 13.039062 44.871094 14.1875 44.621094 14.785156 C 44.554688 14.9375 44.472656 15.917969 44.4375 16.964844 C 44.339844 19.210938 44.636719 21.253906 45.402344 23.519531 C 45.667969 24.332031 45.851562 25.03125 45.820312 25.0625 C 45.769531 25.113281 45.351562 25.0625 44.886719 24.964844 C 44.421875 24.863281 43.625 24.78125 43.109375 24.78125 L 42.195312 24.78125 L 42.277344 24.148438 C 43.027344 19.210938 42.742188 15.667969 41.230469 11.109375 C 40.082031 7.632812 38.355469 4.605469 36.457031 2.695312 L 35.410156 1.664062 L 33.464844 1.679688 C 32.386719 1.695312 30.773438 1.8125 29.875 1.929688 Z M 35.179688 5.320312 C 37.304688 8.515625 38.703125 13.4375 38.851562 18.394531 L 38.9375 21.238281 L 36.972656 21.238281 C 30.324219 21.273438 24.753906 24.648438 23.921875 29.15625 C 23.457031 31.71875 24.6875 33.648438 28.34375 36.089844 C 31.6875 38.320312 33.699219 40.78125 34.332031 43.425781 C 34.679688 44.957031 34.648438 47.519531 34.246094 49.230469 C 33.148438 53.753906 29.925781 56.882812 24.9375 58.246094 C 23.722656 58.578125 23.140625 58.628906 20.699219 58.628906 C 17.441406 58.628906 16.257812 58.394531 14.265625 57.398438 L 13.050781 56.796875 L 13.101562 55.882812 C 13.167969 54.734375 13.683594 52.65625 14.214844 51.441406 C 14.582031 50.628906 14.664062 50.527344 14.996094 50.644531 C 17.089844 51.292969 19.085938 51.425781 20.515625 50.992188 C 22.292969 50.460938 23.375 49.214844 23.558594 47.519531 C 23.675781 46.371094 23.40625 45.554688 22.625 44.691406 C 21.8125 43.777344 20.449219 43.191406 17.871094 42.660156 C 11.273438 41.28125 7.296875 38.71875 5.21875 34.511719 C 4.089844 32.214844 3.90625 31.300781 3.90625 28.191406 C 3.921875 25.980469 3.988281 25.296875 4.289062 24.167969 C 6.066406 17.5625 11.386719 11.824219 19.417969 7.851562 C 24.15625 5.488281 29.957031 3.941406 33.582031 4.058594 C 34.3125 4.074219 34.347656 4.089844 35.179688 5.320312 Z M 85.851562 13.238281 C 86.683594 13.371094 87.597656 13.605469 87.894531 13.722656 L 88.445312 13.953125 L 87.929688 15.050781 C 87.648438 15.652344 87.429688 16.167969 87.464844 16.199219 C 87.496094 16.234375 87.863281 16.367188 88.277344 16.5 C 89.175781 16.796875 89.175781 16.796875 88.394531 18.960938 C 88.078125 19.824219 87.730469 20.972656 87.613281 21.488281 C 87.429688 22.320312 87.347656 22.4375 87.046875 22.371094 C 85.800781 22.136719 85.617188 22.136719 85.46875 22.421875 C 85.238281 22.867188 84.339844 27.660156 84.039062 30.019531 C 83.890625 31.203125 83.722656 33.296875 83.65625 34.679688 L 83.539062 37.171875 L 82.710938 37.390625 C 82.261719 37.503906 81.246094 37.570312 80.464844 37.554688 L 79.050781 37.503906 L 78.917969 36.671875 C 78.554688 34.578125 78.769531 24.730469 79.234375 22.636719 C 79.316406 22.21875 79.417969 22.21875 78.019531 22.554688 L 77.589844 22.667969 L 77.6875 20.773438 C 77.789062 18.859375 78.019531 17.332031 78.320312 16.347656 C 78.46875 15.882812 78.570312 15.800781 79.269531 15.71875 C 80.714844 15.519531 80.78125 15.46875 81.328125 14.171875 L 81.828125 12.972656 L 83.089844 12.972656 C 83.804688 12.972656 85.035156 13.089844 85.851562 13.238281 Z M 57.953125 14.335938 C 57.988281 14.386719 57.921875 15.117188 57.789062 15.984375 C 56.742188 22.570312 57.15625 31.035156 58.953125 39.382812 C 59.167969 40.433594 59.351562 41.378906 59.351562 41.511719 C 59.351562 42.011719 55.644531 43.277344 54.960938 43.027344 C 54.847656 42.976562 54.398438 41.894531 53.980469 40.632812 C 52.535156 36.292969 51.171875 30.386719 50.605469 26.113281 C 50.472656 24.964844 50.324219 24 50.273438 23.964844 C 50.242188 23.933594 49.792969 24.117188 49.277344 24.367188 C 48.363281 24.816406 48.3125 24.816406 48.097656 24.515625 C 47.363281 23.519531 46.515625 19.394531 46.582031 17.265625 L 46.632812 15.882812 L 47.5625 15.519531 C 48.628906 15.085938 51.339844 14.535156 53.367188 14.320312 C 54.761719 14.171875 57.789062 14.1875 57.953125 14.335938 Z M 118.621094 18.660156 C 119.75 18.976562 121.695312 19.910156 121.695312 20.109375 C 121.695312 20.15625 121.578125 20.359375 121.445312 20.523438 C 121.3125 20.707031 121.195312 20.90625 121.195312 20.972656 C 121.195312 21.023438 121.859375 21.105469 122.691406 21.15625 C 123.972656 21.222656 124.320312 21.304688 125.300781 21.804688 C 127.28125 22.800781 128.246094 24.550781 128.230469 27.027344 C 128.195312 29.9375 126.550781 33.03125 123.558594 35.777344 C 122.941406 36.324219 122.128906 36.972656 121.746094 37.207031 C 121.097656 37.570312 121.011719 37.589844 120.582031 37.355469 C 120.332031 37.222656 119.816406 36.824219 119.46875 36.441406 L 118.820312 35.777344 L 119.800781 34.710938 C 122.957031 31.25 123.738281 27.175781 121.546875 25.679688 C 121.097656 25.378906 120.730469 25.28125 120.015625 25.28125 L 119.066406 25.28125 L 117.953125 28.605469 C 117.355469 30.4375 116.675781 32.699219 116.476562 33.648438 L 116.074219 35.34375 L 115.027344 35.308594 C 114.445312 35.292969 113.664062 35.191406 113.300781 35.058594 C 112.632812 34.84375 112.632812 34.828125 112.585938 33.929688 C 112.484375 32.332031 113.167969 27.441406 113.898438 24.53125 C 114.546875 21.921875 115.59375 19.144531 116.242188 18.34375 C 116.425781 18.113281 116.972656 18.179688 118.621094 18.660156 Z M 74.082031 20.707031 C 75.542969 20.988281 76.972656 21.421875 76.972656 21.589844 C 76.972656 21.65625 76.789062 22.269531 76.574219 22.953125 C 75.628906 25.914062 75.0625 31.152344 75.179688 35.707031 L 75.261719 38.71875 L 74.546875 38.902344 C 74.164062 39.003906 73.300781 39.085938 72.667969 39.085938 C 71.738281 39.085938 71.488281 39.035156 71.488281 38.835938 C 71.488281 38.503906 71.269531 38.519531 70.074219 38.9375 C 68.679688 39.417969 66.382812 39.519531 64.953125 39.183594 C 61.046875 38.269531 58.6875 35.292969 58.6875 31.269531 C 58.6875 28.789062 59.585938 26.710938 61.394531 24.996094 C 63.390625 23.136719 65.835938 22.203125 68.59375 22.320312 L 70.125 22.371094 L 70.339844 21.40625 L 70.539062 20.457031 L 71.652344 20.457031 C 72.285156 20.457031 73.367188 20.574219 74.082031 20.707031 Z M 108.5625 22.070312 C 110.355469 22.652344 111.804688 24.515625 112.003906 26.511719 C 112.367188 30.039062 109.09375 34.113281 105.234375 34.945312 C 102.691406 35.492188 100.066406 34.378906 99.085938 32.347656 L 98.734375 31.617188 L 98.039062 32.464844 C 97.207031 33.480469 95.660156 34.578125 94.3125 35.109375 C 92.917969 35.660156 90.6875 35.660156 89.476562 35.109375 C 88.277344 34.5625 87.097656 33.246094 86.699219 32.015625 C 85.703125 28.839844 87.78125 24.863281 91.355469 23.101562 C 92.585938 22.488281 92.902344 22.402344 94.214844 22.335938 C 95.425781 22.269531 95.828125 22.304688 96.609375 22.601562 C 97.722656 23.035156 98.886719 24 99.335938 24.882812 C 99.515625 25.246094 99.683594 25.5625 99.714844 25.597656 C 99.734375 25.628906 100.164062 25.214844 100.664062 24.664062 C 102.824219 22.269531 105.96875 21.238281 108.5625 22.070312 Z M 38.734375 24.929688 C 38.734375 25.015625 38.4375 25.113281 38.070312 25.179688 C 35.941406 25.511719 32.402344 27.011719 30.492188 28.359375 C 28.925781 29.472656 28.945312 29.253906 30.15625 31.785156 C 31.320312 34.261719 31.835938 35.492188 31.636719 35.394531 C 31.570312 35.375 31.171875 35.09375 30.757812 34.8125 C 30.339844 34.511719 29.609375 33.980469 29.109375 33.648438 C 27.832031 32.75 27.515625 32.265625 27.53125 31.21875 C 27.5625 27.925781 32.320312 25.03125 38.039062 24.816406 C 38.421875 24.796875 38.734375 24.847656 38.734375 24.929688 Z M 44.621094 27.359375 C 46.285156 27.707031 47.746094 28.457031 48.859375 29.523438 C 50.574219 31.152344 51.273438 32.929688 51.273438 35.757812 C 51.273438 38.785156 50.355469 40.949219 48.128906 43.175781 C 46.699219 44.605469 45.320312 45.589844 43.640625 46.335938 L 42.59375 46.820312 L 42.542969 50.945312 C 42.492188 54.386719 42.445312 55.085938 42.226562 55.21875 C 41.761719 55.519531 40.8125 55.734375 39.550781 55.832031 L 38.269531 55.933594 L 38.171875 54.535156 C 37.972656 52.191406 37.421875 47.917969 37.089844 46.070312 C 35.960938 39.964844 34.78125 36.222656 32.152344 30.320312 C 32.035156 30.054688 33.285156 29.253906 34.8125 28.625 C 37.988281 27.308594 41.945312 26.792969 44.621094 27.359375 Z M 44.621094 27.359375 "/>
<path style=" stroke:none;fill-rule:nonzero;fill:#FEEDD8;fill-opacity:1;" d="M 67.628906 28.839844 C 66.300781 29.207031 65.085938 30.351562 64.671875 31.667969 C 64.207031 33.097656 64.886719 35.011719 66.152344 35.859375 C 66.914062 36.359375 68.496094 36.671875 69.507812 36.523438 C 70.757812 36.339844 70.738281 36.359375 70.421875 34.410156 C 70.257812 33.464844 70.042969 31.785156 69.941406 30.6875 L 69.742188 28.691406 L 69.078125 28.65625 C 68.710938 28.640625 68.0625 28.722656 67.628906 28.839844 Z M 67.628906 28.839844 "/>
<path style=" stroke:none;fill-rule:nonzero;fill:#FEEDD8;fill-opacity:1;" d="M 104.621094 23.035156 C 101.644531 23.949219 100.183594 26.878906 101.761719 28.691406 C 103.921875 31.136719 109.058594 28.972656 109.058594 25.613281 C 109.058594 23.566406 106.898438 22.320312 104.621094 23.035156 Z M 104.621094 23.035156 "/>
<path style=" stroke:none;fill-rule:nonzero;fill:#FEEDD8;fill-opacity:1;" d="M 93.414062 23.519531 C 90.089844 24.699219 88.992188 28.441406 91.585938 29.769531 C 92.484375 30.21875 94.230469 30.21875 95.246094 29.769531 C 97.40625 28.773438 98.652344 26.511719 97.855469 24.980469 C 97.105469 23.550781 95.128906 22.902344 93.414062 23.519531 Z M 93.414062 23.519531 "/>
<path style=" stroke:none;fill-rule:nonzero;fill:#FEEDD8;fill-opacity:1;" d="M 40.964844 33.894531 C 41.214844 34.660156 41.730469 37.738281 41.976562 39.933594 C 42.34375 43.125 42.394531 43.410156 42.542969 43.410156 C 42.960938 43.410156 44.605469 41.960938 45.1875 41.082031 C 46.332031 39.367188 46.484375 37.570312 45.617188 35.792969 C 44.921875 34.378906 43.574219 33.597656 41.777344 33.597656 C 40.980469 33.597656 40.882812 33.628906 40.964844 33.894531 Z M 40.964844 33.894531 "/>
<path style=" stroke:none;fill-rule:nonzero;fill:#FEEDD8;fill-opacity:1;" d="M 125.019531 40.582031 C 125.019531 40.664062 125.101562 40.75 125.1875 40.75 C 125.285156 40.75 125.351562 40.980469 125.351562 41.265625 C 125.351562 41.894531 125.75 41.847656 125.816406 41.199219 C 125.851562 40.949219 125.949219 40.75 126.035156 40.75 C 126.117188 40.75 126.183594 40.664062 126.183594 40.582031 C 126.183594 40.480469 125.917969 40.414062 125.601562 40.414062 C 125.285156 40.414062 125.019531 40.480469 125.019531 40.582031 Z M 125.019531 40.582031 "/>
<path style=" stroke:none;fill-rule:nonzero;fill:#FEEDD8;fill-opacity:1;" d="M 126.351562 41.082031 C 126.351562 41.445312 126.433594 41.746094 126.515625 41.746094 C 126.617188 41.746094 126.683594 41.613281 126.683594 41.445312 C 126.699219 41.179688 126.699219 41.179688 126.867188 41.445312 C 126.949219 41.613281 127.097656 41.746094 127.179688 41.746094 C 127.265625 41.746094 127.363281 41.613281 127.398438 41.445312 C 127.464844 41.199219 127.480469 41.199219 127.496094 41.464844 C 127.53125 42.011719 127.929688 41.648438 127.980469 41.03125 C 128.027344 40.515625 127.980469 40.414062 127.695312 40.414062 C 127.515625 40.414062 127.28125 40.550781 127.199219 40.699219 C 127.03125 40.980469 127.03125 40.980469 127.015625 40.699219 C 127.015625 40.53125 126.882812 40.414062 126.683594 40.414062 C 126.398438 40.414062 126.351562 40.53125 126.351562 41.082031 Z M 126.351562 41.082031 "/>
</g>
</svg>
